<svg xmlns="http://www.w3.org/2000/svg" viewBox="0 0 960 540" width="960" height="540">
  <defs>
    <linearGradient id="sky7" x1="0" y1="0" x2="0" y2="1">
      <stop offset="0" stop-color="#2a4a6e"/><stop offset="0.5" stop-color="#b59428"/><stop offset="1" stop-color="#e8951f"/>
    </linearGradient>
    <linearGradient id="grd7" x1="0" y1="0" x2="0" y2="1">
      <stop offset="0" stop-color="#7a8a2e"/><stop offset="1" stop-color="#3d5018"/>
    </linearGradient>
  </defs>
  <rect width="960" height="540" fill="url(#sky7)"/>
  <circle cx="730" cy="150" r="54" fill="#ffe39a" opacity="0.9"/>
  <polygon points="0,300 150,200 320,290 480,190 660,300 820,210 960,300 960,330 0,330" fill="#6b5a2a" opacity="0.55"/>
  <polygon points="0,330 220,250 430,330 640,260 860,330 960,300 960,540 0,540" fill="url(#grd7)"/>
  <!-- deer -->
  <g transform="translate(360,300)" fill="#2c1f10">
    <rect x="0" y="40" width="120" height="60" rx="8"/>
    <rect x="100" y="-6" width="22" height="60"/><rect x="116" y="-30" width="40" height="34" rx="6"/>
    <rect x="150" y="-58" width="6" height="34"/><rect x="132" y="-58" width="6" height="30"/>
    <rect x="8" y="96" width="14" height="56"/><rect x="36" y="96" width="14" height="56"/>
    <rect x="78" y="96" width="14" height="56"/><rect x="104" y="96" width="14" height="56"/>
  </g>
  <!-- crosshair -->
  <g transform="translate(430,330)" stroke="#d8ff5e" stroke-width="3" fill="none" opacity="0.95">
    <circle r="46"/><line x1="-66" y1="0" x2="-20" y2="0"/><line x1="20" y1="0" x2="66" y2="0"/>
    <line x1="0" y1="-66" x2="0" y2="-20"/><line x1="0" y1="20" x2="0" y2="66"/>
  </g>
  <text x="40" y="500" font-family="Orbitron, Arial, sans-serif" font-size="34" font-weight="700" fill="#d8ff5e" letter-spacing="6">HUNT THE WILD</text>
</svg>
