<svg xmlns="http://www.w3.org/2000/svg" viewBox="0 0 960 540" width="960" height="540">
  <defs>
    <linearGradient id="sky10" x1="0" y1="0" x2="0" y2="1">
      <stop offset="0" stop-color="#0e1a3a"/><stop offset="0.6" stop-color="#24365e"/><stop offset="1" stop-color="#35507a"/>
    </linearGradient>
    <radialGradient id="moon10" cx="0.5" cy="0.5" r="0.5">
      <stop offset="0" stop-color="#eaf2ff"/><stop offset="1" stop-color="#aecbff"/>
    </radialGradient>
  </defs>
  <rect width="960" height="540" fill="url(#sky10)"/>
  <g fill="#cfe0ff" opacity="0.8"><circle cx="120" cy="80" r="2"/><circle cx="300" cy="50" r="1.6"/><circle cx="520" cy="90" r="2"/><circle cx="640" cy="40" r="1.5"/><circle cx="840" cy="70" r="2.2"/><circle cx="220" cy="130" r="1.4"/><circle cx="760" cy="120" r="1.6"/></g>
  <circle cx="780" cy="120" r="46" fill="url(#moon10)"/>
  <polygon points="0,320 200,210 420,300 620,200 820,300 960,230 960,340 0,340" fill="#1a2742" opacity="0.85"/>
  <rect y="340" width="960" height="200" fill="#1f3050"/>
  <!-- enemy silhouettes with glowing eyes -->
  <g fill="#13203a">
    <g transform="translate(300,330)"><rect x="-20" y="-70" width="40" height="60" rx="6"/><rect x="-12" y="-96" width="24" height="24" rx="4"/><circle cx="-5" cy="-86" r="3" fill="#ffdd33"/><circle cx="6" cy="-86" r="3" fill="#ffdd33"/></g>
    <g transform="translate(560,344)"><rect x="-22" y="-78" width="44" height="66" rx="6"/><rect x="-13" y="-106" width="26" height="26" rx="4"/><circle cx="-5" cy="-95" r="3.2" fill="#ff5050"/><circle cx="7" cy="-95" r="3.2" fill="#ff5050"/></g>
  </g>
  <!-- High Alert edge glow -->
  <rect x="6" y="6" width="948" height="528" fill="none" stroke="#ffc428" stroke-width="10" opacity="0.35" rx="10"/>
  <text x="40" y="500" font-family="Orbitron, Arial, sans-serif" font-size="32" font-weight="700" fill="#aecbff" letter-spacing="5">NIGHT OPS · STAY SHARP</text>
</svg>
